<svg width="160" height="160" viewBox="0 0 160 160" fill="none" xmlns="http://www.w3.org/2000/svg">
  <rect width="160" height="160" rx="32" fill="#2A1F16"/>
  <path d="M50 104C50 113.941 57.059 121 67 121H93C102.941 121 110 113.941 110 104V74H50V104Z" fill="#F3CBA8"/>
  <path d="M46 74H114V62C114 54.268 107.732 48 100 48H60C52.268 48 46 54.268 46 62V74Z" fill="#FFD9BF"/>
  <path d="M58 54C58 50.6863 60.6863 48 64 48H96C99.3137 48 102 50.6863 102 54V58H58V54Z" fill="#FFF1DA"/>
  <path d="M65 52C65 48.6863 67.6863 46 71 46H89C92.3137 46 95 48.6863 95 52V56H65V52Z" fill="#FFF1DA"/>
</svg>
