<svg width="160" height="160" viewBox="0 0 160 160" fill="none" xmlns="http://www.w3.org/2000/svg">
  <rect width="160" height="160" rx="32" fill="#3B2A1A"/>
  <path d="M44 92C44 78.7452 54.7452 68 68 68H92C105.255 68 116 78.7452 116 92V104C116 117.255 105.255 128 92 128H68C54.7452 128 44 117.255 44 104V92Z" fill="#F9D6A1"/>
  <path d="M60 80C57.7909 80 56 78.2091 56 76C56 73.7909 57.7909 72 60 72H100C102.209 72 104 73.7909 104 76C104 78.2091 102.209 80 100 80H60Z" fill="#F6B96B"/>
  <path d="M62 96C62 93.7909 63.7909 92 66 92H94C96.2091 92 98 93.7909 98 96C98 98.2091 96.2091 100 94 100H66C63.7909 100 62 98.2091 62 96Z" fill="#F6B96B"/>
</svg>
