<svg width="160" height="160" viewBox="0 0 160 160" fill="none" xmlns="http://www.w3.org/2000/svg">
  <rect width="160" height="160" rx="32" fill="#221F1F"/>
  <path d="M46 104C46 113.941 53.059 121 63 121H97C106.941 121 114 113.941 114 104V72H46V104Z" fill="#FFD8A6"/>
  <path d="M42 72H118V60C118 52.268 111.732 46 104 46H56C48.268 46 42 52.268 42 60V72Z" fill="#FFF4E1"/>
  <path d="M60 48C60 44.6863 62.6863 42 66 42H94C97.3137 42 100 44.6863 100 48V52H60V48Z" fill="#FFE9BF"/>
  <path d="M70 40C70 36.6863 72.6863 34 76 34H84C87.3137 34 90 36.6863 90 40V44H70V40Z" fill="#FFE9BF"/>
</svg>
