<svg width="160" height="160" viewBox="0 0 160 160" fill="none" xmlns="http://www.w3.org/2000/svg">
  <rect width="160" height="160" rx="32" fill="#2C1B14"/>
  <path d="M52 108C52 116.837 58.1634 123 67 123H93C101.837 123 108 116.837 108 108V76H52V108Z" fill="#E7C5A0"/>
  <path d="M48 76H112V64C112 55.1634 105.837 49 97 49H63C54.1626 49 48 55.1634 48 64V76Z" fill="#F7E4D1"/>
  <path d="M66 58C66 54.6863 68.6863 52 72 52H88C91.3137 52 94 54.6863 94 58V62H66V58Z" fill="#FFF5E6"/>
  <path d="M74 56C74 52.6863 76.6863 50 80 50H80C83.3137 50 86 52.6863 86 56V60H74V56Z" fill="#FFF5E6"/>
</svg>
