<svg width="160" height="160" viewBox="0 0 160 160" fill="none" xmlns="http://www.w3.org/2000/svg">
  <rect width="160" height="160" rx="32" fill="#1E2A1F"/>
  <path d="M50 104C50 113.941 57.059 121 67 121H93C102.941 121 110 113.941 110 104V72H50V104Z" fill="#C6D9B8"/>
  <path d="M46 72H114V60C114 52.268 107.732 46 100 46H60C52.268 46 46 52.268 46 60V72Z" fill="#EAF4DF"/>
  <path d="M60 54C60 50.6863 62.6863 48 66 48H94C97.3137 48 100 50.6863 100 54V58H60V54Z" fill="#F1F8E9"/>
  <path d="M70 52C70 48.6863 72.6863 46 76 46H84C87.3137 46 90 48.6863 90 52V56H70V52Z" fill="#F1F8E9"/>
</svg>
