<svg width="240" height="240" viewBox="0 0 240 240" fill="none" xmlns="http://www.w3.org/2000/svg">
  <rect width="240" height="240" rx="24" fill="#111"/>
  <rect x="16" y="16" width="64" height="64" rx="10" fill="#fff"/>
  <rect x="40" y="40" width="16" height="16" fill="#111"/>
  <rect x="24" y="24" width="16" height="16" fill="#111"/>
  <rect x="56" y="24" width="16" height="16" fill="#111"/>
  <rect x="24" y="56" width="16" height="16" fill="#111"/>
  <rect x="88" y="16" width="64" height="64" rx="10" fill="#fff"/>
  <rect x="112" y="40" width="16" height="16" fill="#111"/>
  <rect x="96" y="24" width="16" height="16" fill="#111"/>
  <rect x="128" y="24" width="16" height="16" fill="#111"/>
  <rect x="96" y="56" width="16" height="16" fill="#111"/>
  <rect x="16" y="88" width="64" height="64" rx="10" fill="#fff"/>
  <rect x="40" y="112" width="16" height="16" fill="#111"/>
  <rect x="24" y="96" width="16" height="16" fill="#111"/>
  <rect x="56" y="96" width="16" height="16" fill="#111"/>
  <rect x="24" y="128" width="16" height="16" fill="#111"/>
  <rect x="104" y="104" width="16" height="16" fill="#fff"/>
  <rect x="140" y="104" width="16" height="16" fill="#fff"/>
  <rect x="104" y="140" width="16" height="16" fill="#fff"/>
  <rect x="140" y="140" width="16" height="16" fill="#fff"/>
  <rect x="160" y="160" width="16" height="16" fill="#fff"/>
  <rect x="184" y="160" width="16" height="16" fill="#fff"/>
  <rect x="160" y="184" width="16" height="16" fill="#fff"/>
  <rect x="184" y="184" width="16" height="16" fill="#fff"/>
</svg>
