<svg width="160" height="160" viewBox="0 0 160 160" fill="none" xmlns="http://www.w3.org/2000/svg">
  <rect width="160" height="160" rx="32" fill="#2B1F1A"/>
  <path d="M44 92C44 78.7452 54.7452 68 68 68H92C105.255 68 116 78.7452 116 92V104C116 117.255 105.255 128 92 128H68C54.7452 128 44 117.255 44 104V92Z" fill="#D6A87C"/>
  <path d="M46 86H114V80C114 75.5817 110.418 72 106 72H54C49.5817 72 46 75.5817 46 80V86Z" fill="#A3D99D"/>
  <path d="M46 100H114V94C114 89.5817 110.418 86 106 86H54C49.5817 86 46 89.5817 46 94V100Z" fill="#E8C97B"/>
  <path d="M46 104H114V98C114 93.5817 110.418 90 106 90H54C49.5817 90 46 93.5817 46 98V104Z" fill="#D6A87C"/>
</svg>
